<svg id="Group_42" data-name="Group 42" xmlns="http://www.w3.org/2000/svg" width="94.703" height="73.467" viewBox="0 0 94.703 73.467">
  <rect id="Rectangle_205" data-name="Rectangle 205" width="94.703" height="73.467" fill="#d0eef2"/>
  <rect id="Rectangle_206" data-name="Rectangle 206" width="15.013" height="10.872" transform="translate(7.36 8.406)" fill="#4fb053"/>
  <rect id="Rectangle_207" data-name="Rectangle 207" width="15.013" height="10.872" transform="translate(29.017 8.406)" fill="#fff"/>
  <rect id="Rectangle_208" data-name="Rectangle 208" width="15.013" height="10.872" transform="translate(50.673 8.406)" fill="#fff"/>
  <rect id="Rectangle_209" data-name="Rectangle 209" width="15.013" height="10.872" transform="translate(72.33 8.406)" fill="#fff"/>
  <rect id="Rectangle_210" data-name="Rectangle 210" width="15.013" height="10.872" transform="translate(7.36 24.195)" fill="#4fb053"/>
  <rect id="Rectangle_211" data-name="Rectangle 211" width="15.013" height="10.872" transform="translate(29.017 24.195)" fill="#fff"/>
  <rect id="Rectangle_212" data-name="Rectangle 212" width="15.013" height="10.872" transform="translate(50.673 24.195)" fill="#e42d4f"/>
  <rect id="Rectangle_213" data-name="Rectangle 213" width="15.013" height="10.872" transform="translate(72.33 24.195)" fill="#fff"/>
  <rect id="Rectangle_214" data-name="Rectangle 214" width="15.013" height="10.872" transform="translate(7.36 39.985)" fill="#4fb053"/>
  <rect id="Rectangle_215" data-name="Rectangle 215" width="15.013" height="10.872" transform="translate(29.017 39.985)" fill="#fff"/>
  <rect id="Rectangle_216" data-name="Rectangle 216" width="15.013" height="10.872" transform="translate(50.673 39.985)" fill="#fff"/>
  <rect id="Rectangle_217" data-name="Rectangle 217" width="15.013" height="10.872" transform="translate(72.33 39.985)" fill="#fff"/>
  <rect id="Rectangle_218" data-name="Rectangle 218" width="15.013" height="10.872" transform="translate(7.36 55.774)" fill="#4fb053"/>
  <rect id="Rectangle_219" data-name="Rectangle 219" width="15.013" height="10.872" transform="translate(29.017 55.774)" fill="#fff"/>
  <rect id="Rectangle_220" data-name="Rectangle 220" width="15.013" height="10.872" transform="translate(50.673 55.774)" fill="#fff"/>
  <rect id="Rectangle_221" data-name="Rectangle 221" width="15.013" height="10.872" transform="translate(72.33 55.774)" fill="#fff"/>
</svg>
