<svg id="Group_49" data-name="Group 49" xmlns="http://www.w3.org/2000/svg" xmlns:xlink="http://www.w3.org/1999/xlink" width="74.243" height="87.423" viewBox="0 0 74.243 87.423">
  <defs>
    <clipPath id="clip-path">
      <rect id="Rectangle_231" data-name="Rectangle 231" width="74.243" height="87.423" fill="none"/>
    </clipPath>
  </defs>
  <g id="Group_51" data-name="Group 51" clip-path="url(#clip-path)">
    <path id="Path_190" data-name="Path 190" d="M55.782,36.923H18.462A18.461,18.461,0,1,1,18.462,0h37.32a18.461,18.461,0,0,1,0,36.923" fill="#d0eef2"/>
    <path id="Path_191" data-name="Path 191" d="M62.543,58.457V61.07h-.511v-5.9a3.9,3.9,0,0,0-7.8,0v5.9h-.511v-9.5a3.9,3.9,0,1,0-7.8,0v9.5H45.4V33.795a3.9,3.9,0,1,0-7.8,0V68.166a1.792,1.792,0,0,1-2.883,1.422L30.3,64.906a4.078,4.078,0,0,0-6.241,5.228l5.325,7.174a15.413,15.413,0,0,1,.961,1.461l7.3,12.6c3.048,5.259,6.549,8.5,14.745,8.5h1.445a14.126,14.126,0,0,0,13.84-11.3l1.039-5.094a80.714,80.714,0,0,0,1.629-16.132V58.457a3.9,3.9,0,0,0-7.8,0" transform="translate(-9.68 -12.44)" fill="#e42d4f"/>
  </g>
</svg>
