<svg xmlns="http://www.w3.org/2000/svg" xmlns:xlink="http://www.w3.org/1999/xlink" width="262" height="50.315" viewBox="0 0 262 50.315">
  <defs>
    <clipPath id="clip-path">
      <rect id="Rectangle_255" data-name="Rectangle 255" width="262" height="50.315" fill="#e42d4f"/>
    </clipPath>
  </defs>
  <g id="Group_74" data-name="Group 74" transform="translate(0 0)">
    <g id="Group_73" data-name="Group 73" transform="translate(0 0)" clip-path="url(#clip-path)">
      <path id="Path_257" data-name="Path 257" d="M32.337,27.792a2.293,2.293,0,0,0,.481-.064,3.969,3.969,0,0,0,.61-.192V43.768H0a3.9,3.9,0,0,0,.192-1.091A5.254,5.254,0,0,0,0,41.587H2.053A3.474,3.474,0,0,0,4.94,40.528a6.41,6.41,0,0,0,.834-3.817V8.03A6.413,6.413,0,0,0,4.94,4.213,3.474,3.474,0,0,0,2.053,3.154H0A3.909,3.909,0,0,0,.192,2.064,5.263,5.263,0,0,0,0,.973H17.708a5.262,5.262,0,0,0-.192,1.091,3.909,3.909,0,0,0,.192,1.091h-1.17A3.531,3.531,0,0,0,13.58,4.213a6.549,6.549,0,0,0-.812,3.817V41.523a15.884,15.884,0,0,0,1.77.128H16.18a23.479,23.479,0,0,0,3.669-.257,12.55,12.55,0,0,0,2.962-.834,10.213,10.213,0,0,0,2.512-1.54,19.881,19.881,0,0,0,2.319-2.31,15.8,15.8,0,0,0,3.6-9.175,3.942,3.942,0,0,0,.61.192,2.286,2.286,0,0,0,.481.064" transform="translate(0 -0.203)" fill="#e42d4f"/>
      <path id="Path_258" data-name="Path 258" d="M60.331,35.667a11.658,11.658,0,0,1-4.01-.642,10.044,10.044,0,0,1-3.369-2.117q.128,3.272.385,5.069a10.025,10.025,0,0,0,.9,3.08,7.3,7.3,0,0,0,3.208,3.369,10.58,10.58,0,0,0,5.133,1.187q9.048,0,15.078-9.111a4.822,4.822,0,0,0,.8.77,3.671,3.671,0,0,0,.993.385,37.078,37.078,0,0,1-3.881,4.524,20.54,20.54,0,0,1-14.4,5.742q-7.507,0-11.549-4.01T45.574,32.395q0-7.377,3.433-11.261t9.977-3.881q5.518,0,8.822,2.566a8.187,8.187,0,0,1,3.3,6.8,8.552,8.552,0,0,1-.771,3.69,8.348,8.348,0,0,1-2.212,2.855,10,10,0,0,1-3.433,1.861,14.127,14.127,0,0,1-4.363.642M58.47,32.972a4.809,4.809,0,0,0,3.914-1.7,8.035,8.035,0,0,0,1.54-4.909v-.449a7.322,7.322,0,0,0-1.476-4.844,4.919,4.919,0,0,0-3.978-1.765A4.638,4.638,0,0,0,54.4,21.3a10.23,10.23,0,0,0-1.38,5.839A6.082,6.082,0,0,0,54.428,31.5a5.326,5.326,0,0,0,4.042,1.476" transform="translate(-9.474 -3.587)" fill="#e42d4f"/>
      <path id="Path_259" data-name="Path 259" d="M99.7,35.667a11.666,11.666,0,0,1-4.01-.642,10.049,10.049,0,0,1-3.368-2.117q.128,3.272.385,5.069a10.026,10.026,0,0,0,.9,3.08,7.292,7.292,0,0,0,3.209,3.369,10.575,10.575,0,0,0,5.133,1.187q9.047,0,15.078-9.111a4.856,4.856,0,0,0,.8.77,3.678,3.678,0,0,0,.994.385,37.079,37.079,0,0,1-3.881,4.524,20.546,20.546,0,0,1-14.4,5.742q-7.506,0-11.549-4.01T84.94,32.395q0-7.377,3.432-11.261t9.977-3.881q5.518,0,8.822,2.566a8.189,8.189,0,0,1,3.3,6.8,8.552,8.552,0,0,1-.771,3.69,8.36,8.36,0,0,1-2.213,2.855,9.988,9.988,0,0,1-3.433,1.861,14.118,14.118,0,0,1-4.362.642m-1.861-2.695a4.808,4.808,0,0,0,3.913-1.7,8.03,8.03,0,0,0,1.541-4.909v-.449a7.317,7.317,0,0,0-1.477-4.844,4.917,4.917,0,0,0-3.977-1.765A4.64,4.64,0,0,0,93.762,21.3a10.23,10.23,0,0,0-1.38,5.839A6.082,6.082,0,0,0,93.793,31.5a5.329,5.329,0,0,0,4.043,1.476" transform="translate(-17.658 -3.587)" fill="#e42d4f"/>
      <path id="Path_260" data-name="Path 260" d="M142.031,14.436v2.31H136.77V50.315h-6.994V16.746H124.9v-2.31h4.876V11.1q0-5.26,2.951-8.181T140.94,0a14.547,14.547,0,0,1,3.945.513A10.206,10.206,0,0,1,148,1.925a6.9,6.9,0,0,1,2.021,2.149,5.282,5.282,0,0,1,.738,2.727,4.432,4.432,0,0,1-1.187,3.176,4.019,4.019,0,0,1-3.048,1.251,3.917,3.917,0,0,1-2.887-1.155A3.842,3.842,0,0,1,142.48,7.25a4.19,4.19,0,0,1,.128-1.027,5.713,5.713,0,0,1,.449-1.155,4.531,4.531,0,0,0,.385-1.283,1.525,1.525,0,0,0-.641-1.219,2.392,2.392,0,0,0-1.541-.513,4.522,4.522,0,0,0-2.214.482,3.313,3.313,0,0,0-1.379,1.732,12.037,12.037,0,0,0-.7,3.4q-.194,2.149-.193,5.421v1.347Z" transform="translate(-25.966 0)" fill="#e42d4f"/>
      <path id="Path_261" data-name="Path 261" d="M186.931,27.921h-.4l-3.009-8.066v5.458a5.294,5.294,0,0,0,.076.978,1.742,1.742,0,0,0,.242.651.919.919,0,0,0,.432.356,1.793,1.793,0,0,0,.66.106h.045a1.261,1.261,0,0,0-.045.258.931.931,0,0,0,.045.257H181.6a.637.637,0,0,0,.061-.257.831.831,0,0,0-.061-.258h.091a1.016,1.016,0,0,0,.97-.486,3.737,3.737,0,0,0,.273-1.7V19.475a1.556,1.556,0,0,0-.19-.9.816.816,0,0,0-.689-.25h-.425a.908.908,0,0,0,.046-.258,1.219,1.219,0,0,0-.046-.257h2.976l2.7,7.414,2.523-7.414h3.047a1.255,1.255,0,0,0-.045.257.931.931,0,0,0,.045.258h-.425a.818.818,0,0,0-.69.25,1.557,1.557,0,0,0-.189.9v6.777a1.56,1.56,0,0,0,.189.9.818.818,0,0,0,.69.25h.379c-.021.061-.036.112-.046.152a.479.479,0,0,0-.015.106.58.58,0,0,0,.015.113.912.912,0,0,0,.046.144h-4.292a.912.912,0,0,0,.047-.257,1.239,1.239,0,0,0-.047-.258h.491a.834.834,0,0,0,.69-.25,1.506,1.506,0,0,0,.2-.9v-7Z" transform="translate(-37.753 -3.702)" fill="#e42d4f"/>
      <path id="Path_262" data-name="Path 262" d="M200.78,21.793h1.652v4.988q0,1.394.985,1.394a1.467,1.467,0,0,0,.933-.425,3.888,3.888,0,0,0,.871-1.137.666.666,0,0,0,.167.151.891.891,0,0,0,.212.061,3.187,3.187,0,0,1-2.76,2.032,2.292,2.292,0,0,1-1.023-.219,2.555,2.555,0,0,1-.826-.676,2.167,2.167,0,0,1-1.7.865,2.291,2.291,0,0,1-1.1-.273,2.615,2.615,0,0,1-.872-.766,3.961,3.961,0,0,1-.577-1.16,5.066,5.066,0,0,1-.007-2.873,3.447,3.447,0,0,1,.577-1.114,2.589,2.589,0,0,1,.894-.728,2.553,2.553,0,0,1,1.145-.257,2.04,2.04,0,0,1,1.425.592Zm-1.113,6.382a.953.953,0,0,0,.8-.425,1.761,1.761,0,0,0,.313-1.076V23.854a1.974,1.974,0,0,0-.3-1.168.977.977,0,0,0-.839-.424,1.177,1.177,0,0,0-1.06.75,4.544,4.544,0,0,0-.389,2.069,5.312,5.312,0,0,0,.4,2.275,1.207,1.207,0,0,0,1.083.818" transform="translate(-40.858 -4.502)" fill="#e42d4f"/>
      <path id="Path_263" data-name="Path 263" d="M211.926,21.793h1.652v4.988q0,1.394.985,1.394a1.467,1.467,0,0,0,.933-.425,3.888,3.888,0,0,0,.871-1.137.666.666,0,0,0,.167.151.891.891,0,0,0,.212.061,3.187,3.187,0,0,1-2.76,2.032,2.292,2.292,0,0,1-1.023-.219,2.555,2.555,0,0,1-.826-.676,2.167,2.167,0,0,1-1.7.865,2.291,2.291,0,0,1-1.1-.273,2.615,2.615,0,0,1-.872-.766,3.962,3.962,0,0,1-.577-1.16,5.066,5.066,0,0,1-.007-2.873,3.447,3.447,0,0,1,.577-1.114,2.589,2.589,0,0,1,.894-.728,2.553,2.553,0,0,1,1.145-.257,2.04,2.04,0,0,1,1.425.592Zm-1.113,6.382a.953.953,0,0,0,.8-.425,1.761,1.761,0,0,0,.313-1.076V23.854a1.974,1.974,0,0,0-.3-1.168.977.977,0,0,0-.839-.424,1.177,1.177,0,0,0-1.06.75,4.544,4.544,0,0,0-.389,2.069,5.312,5.312,0,0,0,.4,2.275,1.207,1.207,0,0,0,1.083.818" transform="translate(-43.175 -4.502)" fill="#e42d4f"/>
      <path id="Path_264" data-name="Path 264" d="M220.116,18.134v2.972h1.137a.831.831,0,0,0,0,.545h-1.137v4.125a2.466,2.466,0,0,0,.265,1.3.928.928,0,0,0,.841.41q1.153,0,2.093-1.895a.553.553,0,0,0,.2.144,1.379,1.379,0,0,0,.242.037,6.75,6.75,0,0,1-.637,1.069,3.656,3.656,0,0,1-.713.736,2.486,2.486,0,0,1-.826.417,3.537,3.537,0,0,1-.977.129,2.138,2.138,0,0,1-1.713-.667,1.663,1.663,0,0,1-.326-.615,3.341,3.341,0,0,1-.1-.9V21.651h-1.076a.845.845,0,0,0,0-.545h1.076V19.2Z" transform="translate(-45.193 -3.77)" fill="#e42d4f"/>
      <path id="Path_265" data-name="Path 265" d="M226.28,23.081a.794.794,0,0,0,.22.577,2.671,2.671,0,0,0,.8.486l1.273.561a6.055,6.055,0,0,1,.819.425,2.339,2.339,0,0,1,.539.455,1.577,1.577,0,0,1,.3.515,1.975,1.975,0,0,1,.091.622,1.89,1.89,0,0,1-.781,1.6,3.515,3.515,0,0,1-2.146.583,4.453,4.453,0,0,1-1.107-.128,3.061,3.061,0,0,1-.864-.356,1.715,1.715,0,0,1-.561-.546,1.3,1.3,0,0,1-.2-.7,1,1,0,0,1,.257-.712.894.894,0,0,1,.683-.273.938.938,0,0,1,.659.243.786.786,0,0,1,.265.606,1.255,1.255,0,0,1-.06.394,1.823,1.823,0,0,1-.053.182.336.336,0,0,0-.023.122.623.623,0,0,0,.288.545,1.35,1.35,0,0,0,.774.2,1.367,1.367,0,0,0,1-.356,1.268,1.268,0,0,0,.364-.948,1.049,1.049,0,0,0-.227-.7,2,2,0,0,0-.758-.5l-1.364-.577a3.77,3.77,0,0,1-1.282-.8,1.5,1.5,0,0,1-.371-1.046,1.6,1.6,0,0,1,.72-1.4,3.593,3.593,0,0,1,2.04-.493,3.986,3.986,0,0,1,1.895.379,1.158,1.158,0,0,1,.7,1.046.894.894,0,0,1-.28.667,1.009,1.009,0,0,1-1.319.054.706.706,0,0,1-.25-.554.433.433,0,0,1,.023-.144c.015-.045.037-.109.068-.189a.756.756,0,0,0,.045-.227.513.513,0,0,0-.272-.455,1.424,1.424,0,0,0-.743-.167,1.248,1.248,0,0,0-.849.266.941.941,0,0,0-.3.75" transform="translate(-46.705 -4.502)" fill="#e42d4f"/>
      <path id="Path_266" data-name="Path 266" d="M236.9,28.357a3.337,3.337,0,0,0,1.645-.455,5.461,5.461,0,0,0,1.524-1.32.738.738,0,0,0,.128.182,1.314,1.314,0,0,0,.19.121,5.005,5.005,0,0,1-3.9,2.017,3.349,3.349,0,0,1-2.547-.955,3.69,3.69,0,0,1-.91-2.654,3.8,3.8,0,0,1,.879-2.707,3.357,3.357,0,0,1,2.562-.932,3.573,3.573,0,0,1,1.9.432,1.351,1.351,0,0,1,.689,1.2,1.013,1.013,0,0,1-.288.736.992.992,0,0,1-.743.3,1.035,1.035,0,0,1-.766-.28,1.015,1.015,0,0,1-.28-.751,1.281,1.281,0,0,1,.015-.181.95.95,0,0,1,.03-.151l.016-.076v-.061l.015-.075v-.031a.464.464,0,0,0-.205-.4.951.951,0,0,0-.553-.143,1.207,1.207,0,0,0-1.153.728,5.4,5.4,0,0,0-.364,2.289A4.431,4.431,0,0,0,235.3,27.6a1.786,1.786,0,0,0,1.6.758" transform="translate(-48.445 -4.502)" fill="#e42d4f"/>
      <path id="Path_267" data-name="Path 267" d="M244.394,17.809V21.6a2.835,2.835,0,0,1,.91-.568,2.974,2.974,0,0,1,1.045-.174,2.635,2.635,0,0,1,1.714.53,1.356,1.356,0,0,1,.41.546,2.6,2.6,0,0,1,.106.85v3.062a2.383,2.383,0,0,0,.2,1.175.781.781,0,0,0,.719.326,1.519,1.519,0,0,0,1.017-.432,3.677,3.677,0,0,0,.849-1.221.669.669,0,0,0,.211.144,2.413,2.413,0,0,0,.242.053,4.116,4.116,0,0,1-1.206,1.591,2.622,2.622,0,0,1-1.629.547,2.135,2.135,0,0,1-1.524-.508,1.917,1.917,0,0,1-.539-1.463V22.948q0-1.409-1.107-1.41a1.278,1.278,0,0,0-1.053.463,2,2,0,0,0-.371,1.282v4.639h-1.652V19.385a1.449,1.449,0,0,0-.174-.825.763.763,0,0,0-.645-.234h-.758a.986.986,0,0,0,.044-.25,1.366,1.366,0,0,0-.044-.265Z" transform="translate(-50.136 -3.703)" fill="#e42d4f"/>
      <path id="Path_268" data-name="Path 268" d="M257.781,21.793h1.652v4.988q0,1.394.985,1.394a1.467,1.467,0,0,0,.933-.425,3.888,3.888,0,0,0,.871-1.137.666.666,0,0,0,.167.151.892.892,0,0,0,.212.061,3.187,3.187,0,0,1-2.76,2.032,2.292,2.292,0,0,1-1.023-.219,2.554,2.554,0,0,1-.826-.676,2.167,2.167,0,0,1-1.7.865,2.291,2.291,0,0,1-1.1-.273,2.615,2.615,0,0,1-.872-.766,3.961,3.961,0,0,1-.577-1.16,5.066,5.066,0,0,1-.007-2.873,3.447,3.447,0,0,1,.577-1.114,2.589,2.589,0,0,1,.894-.728,2.553,2.553,0,0,1,1.145-.257,2.04,2.04,0,0,1,1.425.592Zm-1.113,6.382a.953.953,0,0,0,.8-.425,1.761,1.761,0,0,0,.313-1.076V23.854a1.974,1.974,0,0,0-.3-1.168.977.977,0,0,0-.839-.424,1.177,1.177,0,0,0-1.06.75,4.544,4.544,0,0,0-.389,2.069,5.313,5.313,0,0,0,.4,2.275,1.207,1.207,0,0,0,1.083.818" transform="translate(-52.708 -4.502)" fill="#e42d4f"/>
      <path id="Path_269" data-name="Path 269" d="M265.845,21.845v.576a2.923,2.923,0,0,1,.873-.552,2.694,2.694,0,0,1,.993-.175,2.393,2.393,0,0,1,2.009.909,4.124,4.124,0,0,1,.7,2.578,5.241,5.241,0,0,1-.205,1.516,3.485,3.485,0,0,1-.576,1.16,2.638,2.638,0,0,1-.894.742,2.52,2.52,0,0,1-1.16.266,2.222,2.222,0,0,1-1.744-.713V32.9h-1.591V23.407a1.438,1.438,0,0,0-.174-.825.735.735,0,0,0-.629-.235h-.667a.619.619,0,0,0,.06-.242.848.848,0,0,0-.06-.258Zm1.457.44a1.212,1.212,0,0,0-1.107.554,3.34,3.34,0,0,0-.35,1.736V26.7a1.732,1.732,0,0,0,.357,1.16,1.234,1.234,0,0,0,.993.417,1.207,1.207,0,0,0,1.153-.75,5.863,5.863,0,0,0,.364-2.4,5.17,5.17,0,0,0-.333-2.169,1.123,1.123,0,0,0-1.076-.667" transform="translate(-54.63 -4.51)" fill="#e42d4f"/>
      <path id="Path_270" data-name="Path 270" d="M275.76,21.845v.576a2.891,2.891,0,0,1,.872-.552,2.689,2.689,0,0,1,.992-.175,2.392,2.392,0,0,1,2.009.909,4.124,4.124,0,0,1,.7,2.578,5.243,5.243,0,0,1-.205,1.516,3.5,3.5,0,0,1-.575,1.16,2.641,2.641,0,0,1-.9.742,2.52,2.52,0,0,1-1.16.266,2.217,2.217,0,0,1-1.743-.713V32.9h-1.592V23.407a1.438,1.438,0,0,0-.174-.825.736.736,0,0,0-.629-.235H272.7a.619.619,0,0,0,.06-.242.847.847,0,0,0-.06-.258Zm1.455.44a1.213,1.213,0,0,0-1.107.554,3.342,3.342,0,0,0-.349,1.736V26.7a1.732,1.732,0,0,0,.356,1.16,1.234,1.234,0,0,0,.993.417,1.206,1.206,0,0,0,1.152-.75,5.863,5.863,0,0,0,.364-2.4,5.17,5.17,0,0,0-.333-2.169,1.123,1.123,0,0,0-1.076-.667" transform="translate(-56.692 -4.51)" fill="#e42d4f"/>
      <path id="Path_271" data-name="Path 271" d="M287.167,26.008a2.768,2.768,0,0,1-.948-.152,2.369,2.369,0,0,1-.8-.5q.03.773.091,1.2a2.359,2.359,0,0,0,.212.728,1.728,1.728,0,0,0,.758.8,2.509,2.509,0,0,0,1.213.28A4.183,4.183,0,0,0,291.26,26.2a1.106,1.106,0,0,0,.19.181.856.856,0,0,0,.234.092,8.781,8.781,0,0,1-.917,1.069,4.859,4.859,0,0,1-3.4,1.356,3.711,3.711,0,0,1-2.729-.947,3.663,3.663,0,0,1-.956-2.721,3.9,3.9,0,0,1,.811-2.661,2.984,2.984,0,0,1,2.359-.917,3.311,3.311,0,0,1,2.084.607,1.934,1.934,0,0,1,.781,1.607,2.017,2.017,0,0,1-.182.872,1.966,1.966,0,0,1-.523.674,2.369,2.369,0,0,1-.811.44,3.36,3.36,0,0,1-1.031.152m-.44-.637a1.134,1.134,0,0,0,.924-.4,1.888,1.888,0,0,0,.364-1.16V23.7a1.735,1.735,0,0,0-.349-1.145,1.165,1.165,0,0,0-.94-.416,1.094,1.094,0,0,0-.962.47,2.414,2.414,0,0,0-.326,1.379,1.439,1.439,0,0,0,.333,1.032,1.262,1.262,0,0,0,.955.349" transform="translate(-58.975 -4.502)" fill="#e42d4f"/>
      <path id="Path_272" data-name="Path 272" d="M294.78,17.809v7.52a3.286,3.286,0,0,0,.25,1.524.923.923,0,0,0,.871.432q1.076,0,1.667-1.592a1.424,1.424,0,0,0,.251.136,1.119,1.119,0,0,0,.28.046,4.183,4.183,0,0,1-1.152,1.667,2.682,2.682,0,0,1-2.631.326,2.057,2.057,0,0,1-.765-.568,1.734,1.734,0,0,1-.334-.652,3.821,3.821,0,0,1-.09-.925V19.386a1.45,1.45,0,0,0-.174-.827.762.762,0,0,0-.646-.234h-.7a.994.994,0,0,0,.045-.25,1.387,1.387,0,0,0-.045-.265Z" transform="translate(-60.624 -3.703)" fill="#e42d4f"/>
      <path id="Path_273" data-name="Path 273" d="M300.721,20.907v4.788a2.433,2.433,0,0,0,.22,1.217.814.814,0,0,0,.75.349,1.374,1.374,0,0,0,.947-.417,3.641,3.641,0,0,0,.8-1.206.674.674,0,0,0,.2.152,1.386,1.386,0,0,0,.243.06,3,3,0,0,1-2.745,2.093,2.147,2.147,0,0,1-1.53-.5,1.883,1.883,0,0,1-.531-1.44V22.484a1.382,1.382,0,0,0-.183-.833.769.769,0,0,0-.636-.228h-.713a.922.922,0,0,0,.045-.25,1.285,1.285,0,0,0-.045-.265Zm-.925-3.654a.983.983,0,0,1,.735.3,1,1,0,0,1,.3.728,1.02,1.02,0,0,1-.3.743.983.983,0,0,1-.735.3,1.035,1.035,0,0,1-1.046-1.046.994.994,0,0,1,.3-.728,1.012,1.012,0,0,1,.743-.3" transform="translate(-61.856 -3.587)" fill="#e42d4f"/>
      <path id="Path_274" data-name="Path 274" d="M306.8,20.907v8.032q0,.394-.03.7a3.914,3.914,0,0,1-.092.547,1.664,1.664,0,0,1-.174.44,2.732,2.732,0,0,1-.265.38,3.013,3.013,0,0,1-2.38.926,4,4,0,0,1-1.077-.136,2.565,2.565,0,0,1-.826-.387,1.851,1.851,0,0,1-.531-.592,1.553,1.553,0,0,1-.189-.766,1.1,1.1,0,0,1,.3-.788,1.022,1.022,0,0,1,.773-.318.968.968,0,0,1,.69.265.888.888,0,0,1,.28.675,1.136,1.136,0,0,1-.031.265,2.431,2.431,0,0,1-.106.326,1.5,1.5,0,0,0-.12.455.4.4,0,0,0,.212.349.958.958,0,0,0,.53.136q1.379,0,1.38-1.88v-7.05a1.439,1.439,0,0,0-.174-.826.737.737,0,0,0-.629-.235h-.773a1.035,1.035,0,0,0,.045-.148.528.528,0,0,0,.015-.1.453.453,0,0,0-.015-.109q-.015-.063-.045-.157Zm-.88-3.654a1.036,1.036,0,0,1,1.031,1.031,1.011,1.011,0,0,1-.3.743.994.994,0,0,1-.728.3,1.035,1.035,0,0,1-1.046-1.046.994.994,0,0,1,.3-.728,1.012,1.012,0,0,1,.743-.3" transform="translate(-62.624 -3.587)" fill="#e42d4f"/>
      <path id="Path_275" data-name="Path 275" d="M312.022,17.809v6.383a2.221,2.221,0,0,0,.448-.242,2.292,2.292,0,0,0,.674-.766q.152-.265.333-.644a6.922,6.922,0,0,1,.41-.766,2.334,2.334,0,0,1,.412-.5,1.242,1.242,0,0,1,.467-.265,1.993,1.993,0,0,1,.574-.076,1.4,1.4,0,0,1,.935.326,1.007,1.007,0,0,1,.387.8.98.98,0,0,1-.28.712.924.924,0,0,1-.69.288.886.886,0,0,1-.627-.227.752.752,0,0,1-.245-.577v-.136a.533.533,0,0,0,.016-.121c0-.131-.082-.2-.246-.2a.367.367,0,0,0-.283.16,1.969,1.969,0,0,0-.269.523l-.106.273a3.439,3.439,0,0,1-.272.546,3.227,3.227,0,0,1-.4.5l.235-.022c.055,0,.124-.007.205-.007a2.134,2.134,0,0,1,1.465.462,1.645,1.645,0,0,1,.52,1.3v.651a1.6,1.6,0,0,0,.25.963.837.837,0,0,0,.72.341,1.5,1.5,0,0,0,1-.409,3.411,3.411,0,0,0,.818-1.183.751.751,0,0,0,.182.129,1.016,1.016,0,0,0,.227.038,2.968,2.968,0,0,1-2.775,2.016,2.513,2.513,0,0,1-1.556-.432,1.414,1.414,0,0,1-.566-1.191V25.268q0-1.016-.818-1.016a.993.993,0,0,0-.841.417,1.848,1.848,0,0,0-.311,1.13v2.137h-1.591V19.386a1.443,1.443,0,0,0-.175-.827.76.76,0,0,0-.645-.234h-.757a.994.994,0,0,0,.045-.25,1.387,1.387,0,0,0-.045-.265Z" transform="translate(-64.208 -3.703)" fill="#e42d4f"/>
      <path id="Path_276" data-name="Path 276" d="M324.144,26.008a2.769,2.769,0,0,1-.948-.152,2.369,2.369,0,0,1-.8-.5q.03.773.091,1.2a2.362,2.362,0,0,0,.212.728,1.728,1.728,0,0,0,.758.8,2.509,2.509,0,0,0,1.213.28,4.183,4.183,0,0,0,3.563-2.154,1.107,1.107,0,0,0,.19.181.856.856,0,0,0,.234.092,8.778,8.778,0,0,1-.917,1.069,4.859,4.859,0,0,1-3.4,1.356,3.711,3.711,0,0,1-2.729-.947,3.663,3.663,0,0,1-.956-2.721,3.9,3.9,0,0,1,.811-2.661,2.984,2.984,0,0,1,2.359-.917,3.311,3.311,0,0,1,2.084.607,1.934,1.934,0,0,1,.781,1.607,2.017,2.017,0,0,1-.182.872,1.967,1.967,0,0,1-.523.674,2.369,2.369,0,0,1-.811.44,3.36,3.36,0,0,1-1.031.152m-.44-.637a1.134,1.134,0,0,0,.924-.4,1.888,1.888,0,0,0,.364-1.16V23.7a1.735,1.735,0,0,0-.349-1.145,1.165,1.165,0,0,0-.94-.416,1.094,1.094,0,0,0-.962.47,2.414,2.414,0,0,0-.326,1.379,1.439,1.439,0,0,0,.333,1.032,1.262,1.262,0,0,0,.955.349" transform="translate(-66.662 -4.502)" fill="#e42d4f"/>
      <path id="Path_277" data-name="Path 277" d="M181.647,43.1a1.273,1.273,0,0,0-.046-.257h5.246a3.986,3.986,0,0,1,1.88.4,3.36,3.36,0,0,1,1.288,1.282,6.269,6.269,0,0,1,.8,3.336,6.475,6.475,0,0,1-.66,3.062,3.394,3.394,0,0,1-1.872,1.683,4.769,4.769,0,0,1-.539.174,4.571,4.571,0,0,1-.577.106c-.207.025-.442.043-.7.053s-.577.015-.94.015H181.6a.936.936,0,0,0,.046-.257,1.26,1.26,0,0,0-.046-.258h.486a.82.82,0,0,0,.682-.25,1.514,1.514,0,0,0,.2-.9V44.511a1.509,1.509,0,0,0-.2-.9.82.82,0,0,0-.682-.25H181.6a.941.941,0,0,0,.046-.258m2.971,9.325a3.036,3.036,0,0,0,.4.03h.358a4.543,4.543,0,0,0,1.673-.25,2.242,2.242,0,0,0,1.02-.872,4.547,4.547,0,0,0,.676-1.555,9.344,9.344,0,0,0,.206-2.115,8.289,8.289,0,0,0-.2-1.971,3.708,3.708,0,0,0-.639-1.365,2.141,2.141,0,0,0-1.035-.8,3.447,3.447,0,0,0-.646-.137,8.211,8.211,0,0,0-.936-.045c-.111,0-.226,0-.342.008s-.246.008-.388.008l-.152.015Z" transform="translate(-37.753 -8.907)" fill="#e42d4f"/>
      <path id="Path_278" data-name="Path 278" d="M197.437,45.942v4.788a2.424,2.424,0,0,0,.22,1.217.814.814,0,0,0,.75.349,1.376,1.376,0,0,0,.947-.417,3.654,3.654,0,0,0,.8-1.206.674.674,0,0,0,.2.152,1.391,1.391,0,0,0,.242.06,3,3,0,0,1-2.745,2.093,2.15,2.15,0,0,1-1.531-.5,1.886,1.886,0,0,1-.531-1.44V47.519a1.383,1.383,0,0,0-.182-.833.77.77,0,0,0-.636-.228h-.713a.953.953,0,0,0,.045-.25,1.342,1.342,0,0,0-.045-.265Zm-.925-3.654a.985.985,0,0,1,.735.3,1.007,1.007,0,0,1,.3.728,1.024,1.024,0,0,1-.3.743.985.985,0,0,1-.735.3,1.035,1.035,0,0,1-1.046-1.046.994.994,0,0,1,.3-.728,1.011,1.011,0,0,1,.743-.3" transform="translate(-40.384 -8.792)" fill="#e42d4f"/>
      <path id="Path_279" data-name="Path 279" d="M204.344,51.043a2.767,2.767,0,0,1-.947-.152,2.362,2.362,0,0,1-.8-.5q.03.773.091,1.2a2.361,2.361,0,0,0,.212.728,1.728,1.728,0,0,0,.758.8,2.507,2.507,0,0,0,1.213.28,4.183,4.183,0,0,0,3.563-2.154,1.109,1.109,0,0,0,.189.181.864.864,0,0,0,.235.092,8.849,8.849,0,0,1-.917,1.069,4.864,4.864,0,0,1-3.4,1.356,3.71,3.71,0,0,1-2.729-.947,3.663,3.663,0,0,1-.956-2.721,3.9,3.9,0,0,1,.811-2.661,2.982,2.982,0,0,1,2.358-.917,3.313,3.313,0,0,1,2.085.607,1.936,1.936,0,0,1,.781,1.607,2.029,2.029,0,0,1-.182.872,1.977,1.977,0,0,1-.523.674,2.369,2.369,0,0,1-.811.44,3.362,3.362,0,0,1-1.031.152m-.44-.637a1.134,1.134,0,0,0,.924-.4,1.893,1.893,0,0,0,.364-1.16v-.106a1.731,1.731,0,0,0-.349-1.145,1.162,1.162,0,0,0-.939-.416,1.1,1.1,0,0,0-.963.47,2.421,2.421,0,0,0-.326,1.379,1.439,1.439,0,0,0,.333,1.032,1.262,1.262,0,0,0,.955.349" transform="translate(-41.756 -9.707)" fill="#e42d4f"/>
      <path id="Path_280" data-name="Path 280" d="M211.874,46.865v.7a2.444,2.444,0,0,1,.857-.637,2.632,2.632,0,0,1,1.038-.2,2.072,2.072,0,0,1,1.531.545,1.56,1.56,0,0,1,.394.622,3.5,3.5,0,0,1,.106.985v3q0,1.364.909,1.364a1.508,1.508,0,0,0,.985-.469,4.8,4.8,0,0,0,.955-1.29,1.374,1.374,0,0,0,.189.167.663.663,0,0,0,.235.076,5.42,5.42,0,0,1-1.335,1.652,2.5,2.5,0,0,1-1.546.516q-1.987,0-1.986-2.062V48.7q0-1.334-.94-1.335a1.206,1.206,0,0,0-1,.463,1.972,1.972,0,0,0-.364,1.252v4.685h-1.576V48.427a1.392,1.392,0,0,0-.182-.834.775.775,0,0,0-.637-.227h-.652a1.26,1.26,0,0,0,.046-.258,1.081,1.081,0,0,0-.046-.242Z" transform="translate(-43.42 -9.715)" fill="#e42d4f"/>
      <path id="Path_281" data-name="Path 281" d="M222.04,48.116a.794.794,0,0,0,.22.577,2.671,2.671,0,0,0,.8.486l1.273.561a6.057,6.057,0,0,1,.819.425,2.339,2.339,0,0,1,.539.455,1.576,1.576,0,0,1,.3.515,1.975,1.975,0,0,1,.091.622,1.89,1.89,0,0,1-.781,1.6,3.515,3.515,0,0,1-2.146.583,4.453,4.453,0,0,1-1.107-.128,3.061,3.061,0,0,1-.864-.356,1.715,1.715,0,0,1-.561-.546,1.3,1.3,0,0,1-.2-.7,1,1,0,0,1,.257-.712.894.894,0,0,1,.683-.273.938.938,0,0,1,.659.243.786.786,0,0,1,.265.606,1.254,1.254,0,0,1-.06.394,1.815,1.815,0,0,1-.053.182.336.336,0,0,0-.023.122.623.623,0,0,0,.288.545,1.35,1.35,0,0,0,.774.2,1.367,1.367,0,0,0,1-.356,1.268,1.268,0,0,0,.364-.948,1.049,1.049,0,0,0-.227-.7,2,2,0,0,0-.758-.5l-1.364-.577a3.77,3.77,0,0,1-1.282-.8,1.5,1.5,0,0,1-.372-1.046,1.6,1.6,0,0,1,.72-1.4,3.593,3.593,0,0,1,2.04-.493,3.986,3.986,0,0,1,1.895.379,1.158,1.158,0,0,1,.7,1.046.894.894,0,0,1-.28.667,1.009,1.009,0,0,1-1.319.054.706.706,0,0,1-.25-.554.433.433,0,0,1,.023-.144c.015-.045.037-.109.068-.189a.756.756,0,0,0,.045-.227.513.513,0,0,0-.272-.455,1.424,1.424,0,0,0-.743-.167,1.248,1.248,0,0,0-.849.266.941.941,0,0,0-.3.75" transform="translate(-45.823 -9.707)" fill="#e42d4f"/>
      <path id="Path_282" data-name="Path 282" d="M231.646,43.169v2.972h1.137a.831.831,0,0,0,0,.545h-1.137V50.81a2.466,2.466,0,0,0,.265,1.3.928.928,0,0,0,.841.41q1.153,0,2.093-1.895a.553.553,0,0,0,.2.144,1.379,1.379,0,0,0,.242.037,6.749,6.749,0,0,1-.637,1.069,3.655,3.655,0,0,1-.713.736,2.486,2.486,0,0,1-.826.417,3.537,3.537,0,0,1-.977.129,2.138,2.138,0,0,1-1.713-.667,1.663,1.663,0,0,1-.326-.615,3.342,3.342,0,0,1-.1-.9V46.686h-1.076a.845.845,0,0,0,0-.545h1.076V44.23Z" transform="translate(-47.59 -8.975)" fill="#e42d4f"/>
      <path id="Path_283" data-name="Path 283" d="M235.01,47.139a1.255,1.255,0,0,0-.045-.257h3.168V47.4a2.676,2.676,0,0,1,1.8-.667,2.423,2.423,0,0,1,2.017.856,3.96,3.96,0,0,1,.682,2.509,4.2,4.2,0,0,1-.856,2.829,3.021,3.021,0,0,1-2.418.993,3.883,3.883,0,0,1-1.183-.174,2.725,2.725,0,0,1-.955-.524,1.873,1.873,0,0,1-.576-.742,2.936,2.936,0,0,1-.167-1.092V48.443a1.441,1.441,0,0,0-.174-.833.77.77,0,0,0-.645-.227h-.7a.9.9,0,0,0,.045-.243m4.549.167a1.284,1.284,0,0,0-1.054.455,2.018,2.018,0,0,0-.372,1.3v2.669a2.1,2.1,0,0,0,.3,1.266,1.1,1.1,0,0,0,.939.4,1.173,1.173,0,0,0,1.145-.758,6.655,6.655,0,0,0,.341-2.517,5.436,5.436,0,0,0-.311-2.16,1.033,1.033,0,0,0-.993-.66" transform="translate(-48.847 -9.715)" fill="#e42d4f"/>
      <path id="Path_284" data-name="Path 284" d="M249.726,51.043a2.767,2.767,0,0,1-.947-.152,2.361,2.361,0,0,1-.8-.5q.03.773.091,1.2a2.362,2.362,0,0,0,.212.728,1.728,1.728,0,0,0,.758.8,2.507,2.507,0,0,0,1.213.28,4.183,4.183,0,0,0,3.563-2.154,1.108,1.108,0,0,0,.189.181.865.865,0,0,0,.235.092,8.849,8.849,0,0,1-.917,1.069,4.864,4.864,0,0,1-3.4,1.356,3.71,3.71,0,0,1-2.729-.947,3.663,3.663,0,0,1-.956-2.721,3.9,3.9,0,0,1,.811-2.661,2.982,2.982,0,0,1,2.358-.917,3.313,3.313,0,0,1,2.085.607,1.936,1.936,0,0,1,.781,1.607,2.029,2.029,0,0,1-.182.872,1.976,1.976,0,0,1-.523.674,2.369,2.369,0,0,1-.811.44,3.362,3.362,0,0,1-1.031.152m-.44-.637a1.134,1.134,0,0,0,.924-.4,1.893,1.893,0,0,0,.364-1.16v-.106a1.731,1.731,0,0,0-.349-1.145,1.162,1.162,0,0,0-.939-.416,1.1,1.1,0,0,0-.963.47A2.421,2.421,0,0,0,248,49.025a1.439,1.439,0,0,0,.333,1.032,1.262,1.262,0,0,0,.955.349" transform="translate(-51.191 -9.707)" fill="#e42d4f"/>
      <path id="Path_285" data-name="Path 285" d="M258.167,46.816v.758a2.246,2.246,0,0,1,1.865-.864,2,2,0,0,1,1.335.425,1.415,1.415,0,0,1,.5,1.137,1.232,1.232,0,0,1-.3.849.961.961,0,0,1-.75.333.942.942,0,0,1-.683-.28.924.924,0,0,1-.288-.689,1.088,1.088,0,0,1,.03-.28,1.075,1.075,0,0,1,.106-.25.547.547,0,0,0,.053-.106.348.348,0,0,0,.007-.076.281.281,0,0,0-.151-.234.655.655,0,0,0-.364-.1,1.2,1.2,0,0,0-.993.47,1.922,1.922,0,0,0-.371,1.228v4.625h-1.653V48.393a1.394,1.394,0,0,0-.181-.834.774.774,0,0,0-.637-.227h-.652a1.333,1.333,0,0,0,.045-.265,1.123,1.123,0,0,0-.045-.25Z" transform="translate(-53.022 -9.711)" fill="#e42d4f"/>
      <path id="Path_286" data-name="Path 286" d="M266.691,42.844v7.52a3.285,3.285,0,0,0,.25,1.524.922.922,0,0,0,.871.432q1.076,0,1.667-1.592a1.424,1.424,0,0,0,.251.136,1.12,1.12,0,0,0,.28.046,4.183,4.183,0,0,1-1.152,1.667,2.682,2.682,0,0,1-2.631.326,2.054,2.054,0,0,1-.766-.568,1.744,1.744,0,0,1-.333-.652,3.818,3.818,0,0,1-.091-.925V44.421a1.45,1.45,0,0,0-.174-.827.76.76,0,0,0-.645-.234h-.7a.959.959,0,0,0,.045-.25,1.324,1.324,0,0,0-.045-.265Z" transform="translate(-54.784 -8.907)" fill="#e42d4f"/>
      <path id="Path_287" data-name="Path 287" d="M273.633,51.043a2.775,2.775,0,0,1-.948-.152,2.369,2.369,0,0,1-.8-.5q.031.773.091,1.2a2.362,2.362,0,0,0,.212.728,1.734,1.734,0,0,0,.759.8,2.506,2.506,0,0,0,1.212.28,4.183,4.183,0,0,0,3.564-2.154,1.111,1.111,0,0,0,.189.181.865.865,0,0,0,.235.092,8.851,8.851,0,0,1-.917,1.069,4.865,4.865,0,0,1-3.4,1.356,3.712,3.712,0,0,1-2.73-.947,3.666,3.666,0,0,1-.955-2.721,3.9,3.9,0,0,1,.811-2.661,2.982,2.982,0,0,1,2.358-.917,3.309,3.309,0,0,1,2.084.607,1.937,1.937,0,0,1,.782,1.607,2.029,2.029,0,0,1-.182.872,2,2,0,0,1-.523.674,2.383,2.383,0,0,1-.811.44,3.362,3.362,0,0,1-1.031.152m-.44-.637a1.134,1.134,0,0,0,.924-.4,1.888,1.888,0,0,0,.364-1.16v-.106a1.731,1.731,0,0,0-.349-1.145,1.162,1.162,0,0,0-.939-.416,1.1,1.1,0,0,0-.963.47,2.421,2.421,0,0,0-.326,1.379,1.443,1.443,0,0,0,.333,1.032,1.265,1.265,0,0,0,.956.349" transform="translate(-56.161 -9.707)" fill="#e42d4f"/>
      <path id="Path_288" data-name="Path 288" d="M281.164,46.865v.7a2.442,2.442,0,0,1,.856-.637,2.639,2.639,0,0,1,1.039-.2,2.07,2.07,0,0,1,1.53.545,1.563,1.563,0,0,1,.4.622,3.5,3.5,0,0,1,.106.985v3q0,1.364.909,1.364a1.508,1.508,0,0,0,.986-.469,4.828,4.828,0,0,0,.955-1.29,1.374,1.374,0,0,0,.189.167.663.663,0,0,0,.235.076,5.433,5.433,0,0,1-1.335,1.652,2.5,2.5,0,0,1-1.546.516q-1.987,0-1.987-2.062V48.7q0-1.334-.94-1.335a1.2,1.2,0,0,0-1,.463,1.972,1.972,0,0,0-.364,1.252v4.685h-1.576V48.427a1.385,1.385,0,0,0-.183-.834.773.773,0,0,0-.637-.227h-.651a1.244,1.244,0,0,0,.045-.258,1.068,1.068,0,0,0-.045-.242Z" transform="translate(-57.825 -9.715)" fill="#e42d4f"/>
      <path id="Path_289" data-name="Path 289" d="M291.417,45.942v4.788a2.433,2.433,0,0,0,.22,1.217.814.814,0,0,0,.75.349,1.374,1.374,0,0,0,.947-.417,3.641,3.641,0,0,0,.8-1.206.674.674,0,0,0,.2.152,1.385,1.385,0,0,0,.243.06,3,3,0,0,1-2.745,2.093,2.147,2.147,0,0,1-1.53-.5,1.883,1.883,0,0,1-.531-1.44V47.519a1.382,1.382,0,0,0-.183-.833.769.769,0,0,0-.636-.228h-.713a.928.928,0,0,0,.046-.25,1.3,1.3,0,0,0-.046-.265Zm-.925-3.654a.983.983,0,0,1,.735.3,1,1,0,0,1,.3.728,1.02,1.02,0,0,1-.3.743.983.983,0,0,1-.735.3,1.035,1.035,0,0,1-1.046-1.046.994.994,0,0,1,.3-.728,1.012,1.012,0,0,1,.743-.3" transform="translate(-59.921 -8.792)" fill="#e42d4f"/>
      <path id="Path_290" data-name="Path 290" d="M296.935,46.865v.7a2.452,2.452,0,0,1,.857-.637,2.632,2.632,0,0,1,1.038-.2,2.072,2.072,0,0,1,1.531.545,1.56,1.56,0,0,1,.394.622,3.464,3.464,0,0,1,.106.985v3q0,1.364.909,1.364a1.506,1.506,0,0,0,.985-.469,4.8,4.8,0,0,0,.955-1.29,1.324,1.324,0,0,0,.19.167.657.657,0,0,0,.234.076,5.42,5.42,0,0,1-1.335,1.652,2.5,2.5,0,0,1-1.546.516q-1.987,0-1.986-2.062V48.7q0-1.334-.94-1.335a1.206,1.206,0,0,0-1,.463,1.972,1.972,0,0,0-.364,1.252v4.685h-1.576V48.427a1.392,1.392,0,0,0-.182-.834.775.775,0,0,0-.637-.227h-.652a1.262,1.262,0,0,0,.046-.258,1.082,1.082,0,0,0-.046-.242Z" transform="translate(-61.103 -9.715)" fill="#e42d4f"/>
      <path id="Path_291" data-name="Path 291" d="M309.922,46.827h1.652V54.56q0,3.26-3.153,3.26a3.376,3.376,0,0,1-2.04-.561,1.753,1.753,0,0,1-.765-1.486,1.152,1.152,0,0,1,.3-.842,1.07,1.07,0,0,1,.8-.31,1.013,1.013,0,0,1,.728.272.92.92,0,0,1,.288.7,1.551,1.551,0,0,1-.03.311,1.521,1.521,0,0,1-.106.311l-.046.121a.6.6,0,0,0-.045.2.689.689,0,0,0,.257.561,1.04,1.04,0,0,0,.683.212,1.3,1.3,0,0,0,.856-.309,1.482,1.482,0,0,0,.493-.824,3.3,3.3,0,0,0,.084-.491c.015-.166.027-.334.038-.505V53.346a4.4,4.4,0,0,1-.827.425,2.3,2.3,0,0,1-.78.122,2.524,2.524,0,0,1-1.16-.266,2.631,2.631,0,0,1-.894-.742,3.511,3.511,0,0,1-.576-1.153,5.108,5.108,0,0,1-.205-1.493,5.022,5.022,0,0,1,.2-1.456,3.424,3.424,0,0,1,.562-1.122,2.471,2.471,0,0,1,.879-.719,2.865,2.865,0,0,1,2.069-.106,2.263,2.263,0,0,1,.736.462Zm-1.153,6.429a1.06,1.06,0,0,0,.841-.356,1.439,1.439,0,0,0,.311-.977V48.768a1.63,1.63,0,0,0-.311-1.069,1.093,1.093,0,0,0-.887-.371,1.245,1.245,0,0,0-1.168.7,4.731,4.731,0,0,0-.379,2.168,4.977,4.977,0,0,0,.417,2.267,1.287,1.287,0,0,0,1.175.8" transform="translate(-63.507 -9.707)" fill="#e42d4f"/>
    </g>
  </g>
</svg>
